<?xml version="1.0" standalone="no"?><!DOCTYPE svg PUBLIC "-//W3C//DTD SVG 1.1//EN" "http://www.w3.org/Graphics/SVG/1.1/DTD/svg11.dtd"><svg t="1684548306377" class="icon" viewBox="0 0 1024 1024" version="1.1" xmlns="http://www.w3.org/2000/svg" p-id="2448" xmlns:xlink="http://www.w3.org/1999/xlink" width="200" height="200"><path d="M844.2 395.8m-20.6 0a20.6 20.6 0 1 0 41.2 0 20.6 20.6 0 1 0-41.2 0Z" fill="#3E3A39" p-id="2449"></path><path d="M264.9 390.5c-33.2 0-60.1 27-60.1 60.1s27 60.1 60.1 60.1 60.1-27 60.1-60.1-26.9-60.1-60.1-60.1z m0 78.7c-10.2 0-18.6-8.3-18.6-18.6s8.3-18.6 18.6-18.6 18.6 8.3 18.6 18.6-8.3 18.6-18.6 18.6zM540 249.2c-55.5 0-100.7 45.2-100.7 100.7S484.5 450.6 540 450.6s100.7-45.2 100.7-100.7S595.5 249.2 540 249.2z m0 159.9c-32.6 0-59.2-26.5-59.2-59.2s26.5-59.2 59.2-59.2c32.6 0 59.2 26.5 59.2 59.2s-26.6 59.2-59.2 59.2z" fill="#3E3A39" p-id="2450"></path><path d="M976.9 320.6c-9.4-22.1-20.2-43.4-32.5-63.8 12.3-30.8 20.6-59.3 24.9-85.5 4.3-25.9 4.4-49.3 0.4-69.4-4.4-22.2-13.9-40.7-28.1-55-19.9-19.9-57.8-27.8-112.4-23.3-40 3.3-87 13.5-127.4 27.4C643 27.8 581.1 16 517.3 16 450 16 384.7 29.2 323.2 55.2c-59.4 25.1-112.7 61.1-158.5 106.9-45.8 45.8-81.8 99.1-106.9 158.5-26 61.5-39.2 126.8-39.2 194.1s13.2 132.6 39.2 194.1c25.1 59.4 61.1 112.7 106.9 158.5 16.5 16.5 33.9 31.7 52.3 45.6-23.1 7.7-44.4 12.6-63.1 14.5-34.3 3.5-59.4-2.5-74.8-17.9-24.1-24.1-25.1-74-2.6-140.3 3.7-10.9-2.2-22.7-13-26.3-10.9-3.7-22.7 2.2-26.3 13-35.6 105.2-12.8 157.6 12.6 183 20.6 20.6 49.5 31 86.1 31 7.1 0 14.6-0.4 22.3-1.2 30.1-3.1 64-12.2 101.3-27.1 20.4 12.3 41.7 23.2 63.8 32.6 61.5 26 126.8 39.2 194.1 39.2s132.6-13.2 194.1-39.2c59.4-25.1 112.7-61.1 158.5-106.9 45.8-45.8 81.8-99.1 106.9-158.5 26-61.5 39.2-126.8 39.2-194.1s-13.2-132.6-39.2-194.1zM832.5 65.2c46.6-3.8 71.7 3.3 79.6 11.2 21.7 21.7 20.7 59.9 16.1 88.2-2.5 15.3-6.8 32-12.7 49.8-13.9-18.4-29.1-35.8-45.6-52.3-33.5-33.5-71-61.7-111.9-84.2 25.4-6.4 51.2-10.8 74.5-12.7zM517.3 971.9c-75.9 0-147.5-18.6-210.5-51.4 111-54.6 235.8-148.4 351.9-264.4 44.6-44.6 86.3-90.9 124-137.7 7.2-8.9 5.8-22-3.2-29.2-8.9-7.2-22-5.8-29.2 3.2-36.7 45.6-77.4 90.8-121 134.4-113.6 113.5-235.4 204.9-342.9 257.4-7.7 3.8-15.4 7.3-22.9 10.6C141 812.7 60.1 673 60.1 514.7c0-252.1 205.1-457.2 457.2-457.2 158.3 0 298 80.8 380.1 203.4-8.6 19.4-18.7 39.7-30.3 60.5-5.6 10-2 22.7 8.1 28.3 3.2 1.8 6.7 2.6 10.1 2.6 7.3 0 14.4-3.9 18.2-10.7 7.1-12.7 13.6-25.2 19.6-37.4 32.8 63 51.4 134.6 51.4 210.5 0 252.1-205.1 457.2-457.2 457.2z" fill="#3E3A39" p-id="2451"></path></svg>